<svg width="24" height="25" viewBox="0 0 24 25" fill="none" xmlns="http://www.w3.org/2000/svg">
<path d="M12 18.1832C11.8012 18.1805 11.6106 18.1036 11.4656 17.9677L3.9656 10.4741C3.846 10.3285 3.78488 10.1437 3.79413 9.95558C3.80338 9.76745 3.88233 9.58948 4.01563 9.4563C4.14893 9.32311 4.32705 9.24422 4.51534 9.23498C4.70363 9.22574 4.88862 9.28681 5.03435 9.40631L12 16.3753L18.9656 9.40631C19.1113 9.28681 19.2963 9.22574 19.4846 9.23498C19.6729 9.24422 19.851 9.32311 19.9843 9.4563C20.1176 9.58948 20.1966 9.76745 20.2058 9.95558C20.2151 10.1437 20.1539 10.3285 20.0343 10.4741L12.5343 17.9677C12.3894 18.1036 12.1988 18.1805 12 18.1832Z" fill="#B0B5BF" style="fill:#B0B5BF;fill:color(display-p3 0.6902 0.7098 0.7490);fill-opacity:1;"/>
</svg>
