<svg width="32" height="32" viewBox="0 0 32 32" fill="none" xmlns="http://www.w3.org/2000/svg">
<path d="M13.2843 25.6372C13.9509 25.4962 18.0125 25.4962 18.679 25.6372C19.2488 25.7688 19.865 26.0763 19.865 26.7478C19.8319 27.387 19.4569 27.9537 18.9387 28.3136C18.2669 28.8373 17.4784 29.169 16.6542 29.2885C16.1983 29.3476 15.7504 29.3489 15.3105 29.2885C14.4849 29.169 13.6964 28.8373 13.0259 28.3122C12.5065 27.9537 12.1314 27.387 12.0983 26.7478C12.0983 26.0763 12.7145 25.7688 13.2843 25.6372ZM16.0604 2.66667C18.8339 2.66667 21.6671 3.9827 23.35 6.16622C24.4419 7.57222 24.9428 8.97688 24.9428 11.1604V11.7284C24.9428 13.403 25.3854 14.39 26.3594 15.5275C27.0975 16.3654 27.3334 17.4411 27.3334 18.608C27.3334 19.7737 26.9504 20.8802 26.1832 21.7786C25.1787 22.8556 23.7621 23.5431 22.3164 23.6626C20.2213 23.8412 18.125 23.9917 16.0007 23.9917C13.8752 23.9917 11.7801 23.9017 9.68509 23.6626C8.23802 23.5431 6.82144 22.8556 5.8183 21.7786C5.05104 20.8802 4.66675 19.7737 4.66675 18.608C4.66675 17.4411 4.90395 16.3654 5.64073 15.5275C6.6452 14.39 7.05864 13.403 7.05864 11.7284V11.1604C7.05864 8.91779 7.61785 7.45136 8.76941 6.01582C10.4815 3.92227 13.2259 2.66667 15.9411 2.66667H16.0604Z" fill="#383C6C" style="fill:#383C6C;fill:color(display-p3 0.2196 0.2353 0.4235);fill-opacity:1;"/>
<circle cx="23.5" cy="6.5" r="3.5" fill="#EB4A95" style="fill:#EB4A95;fill:color(display-p3 0.9216 0.2902 0.5843);fill-opacity:1;"/>
</svg>
