<svg width="22" height="22" viewBox="0 0 22 22" fill="none" xmlns="http://www.w3.org/2000/svg">
<path fill-rule="evenodd" clip-rule="evenodd" d="M10.7659 0.778076C5.24937 0.778076 0.777344 5.25011 0.777344 10.7666C0.777344 16.2832 5.24937 20.7552 10.7659 20.7552C13.045 20.7552 15.1458 19.9919 16.8266 18.707L19.8354 21.708C20.2264 22.098 20.8596 22.0972 21.2496 21.7062C21.6396 21.3151 21.6388 20.682 21.2478 20.292L18.2875 17.3393C19.8236 15.5828 20.7545 13.2834 20.7545 10.7666C20.7545 5.25011 16.2824 0.778076 10.7659 0.778076ZM2.77734 10.7666C2.77734 6.35467 6.35394 2.77808 10.7659 2.77808C15.1779 2.77808 18.7545 6.35467 18.7545 10.7666C18.7545 15.1786 15.1779 18.7552 10.7659 18.7552C6.35394 18.7552 2.77734 15.1786 2.77734 10.7666Z" fill="#A2A5B5" style="fill:#A2A5B5;fill:color(display-p3 0.6353 0.6471 0.7098);fill-opacity:1;"/>
</svg>
