<svg width="25" height="24" viewBox="0 0 25 24" fill="none" xmlns="http://www.w3.org/2000/svg">
<path fill-rule="evenodd" clip-rule="evenodd" d="M1.99401 10.084C1.977 10.0156 1.97579 9.9443 1.99045 9.8754C2.00512 9.8065 2.03527 9.74185 2.07864 9.68634C2.12201 9.63083 2.17745 9.58592 2.24075 9.55502C2.30405 9.52412 2.37356 9.50804 2.44401 9.508H23.516C23.818 9.508 24.039 9.79099 23.966 10.084L21.039 21.79C20.989 21.9908 20.8732 22.1691 20.7101 22.2965C20.547 22.4239 20.346 22.4931 20.139 22.493H5.82001C5.61304 22.4931 5.412 22.4239 5.2489 22.2965C5.08579 22.1691 4.97002 21.9908 4.92001 21.79L1.99401 10.084ZM13.73 13.625C13.73 13.4261 13.651 13.2353 13.5103 13.0947C13.3697 12.954 13.1789 12.875 12.98 12.875C12.7811 12.875 12.5903 12.954 12.4497 13.0947C12.309 13.2353 12.23 13.4261 12.23 13.625V18.375C12.23 18.5739 12.309 18.7647 12.4497 18.9053C12.5903 19.046 12.7811 19.125 12.98 19.125C13.1789 19.125 13.3697 19.046 13.5103 18.9053C13.651 18.7647 13.73 18.5739 13.73 18.375V13.625ZM18.049 13.064C18.2358 13.1321 18.3879 13.2716 18.4719 13.4518C18.5559 13.632 18.565 13.8381 18.497 14.025L16.873 18.489C16.8393 18.5816 16.7877 18.6666 16.7212 18.7393C16.6546 18.8119 16.5744 18.8707 16.4851 18.9124C16.3959 18.954 16.2992 18.9777 16.2008 18.982C16.1024 18.9863 16.0041 18.9712 15.9115 18.9375C15.8189 18.9038 15.7339 18.8522 15.6612 18.7857C15.5886 18.7191 15.5298 18.6389 15.4881 18.5496C15.4465 18.4603 15.4228 18.3637 15.4185 18.2653C15.4142 18.1669 15.4293 18.0686 15.463 17.976L17.088 13.512C17.1561 13.3254 17.2954 13.1735 17.4754 13.0895C17.6553 13.0055 17.8623 12.9963 18.049 13.064ZM8.87201 13.512C8.83832 13.4194 8.78673 13.3344 8.72018 13.2617C8.65363 13.1891 8.57343 13.1303 8.48414 13.0886C8.39486 13.047 8.29825 13.0233 8.19982 13.019C8.1014 13.0147 8.00309 13.0298 7.91051 13.0635C7.81792 13.0972 7.73288 13.1488 7.66024 13.2153C7.58759 13.2819 7.52877 13.3621 7.48712 13.4514C7.44548 13.5406 7.42182 13.6373 7.41751 13.7357C7.4132 13.8341 7.42832 13.9324 7.46201 14.025L9.08701 18.489C9.12069 18.5816 9.17228 18.6666 9.23883 18.7393C9.30538 18.8119 9.38558 18.8707 9.47487 18.9124C9.56415 18.954 9.66076 18.9777 9.75919 18.982C9.85761 18.9863 9.95592 18.9712 10.0485 18.9375C10.1411 18.9038 10.2261 18.8522 10.2988 18.7857C10.3714 18.7191 10.4302 18.6389 10.4719 18.5496C10.5135 18.4603 10.5372 18.3637 10.5415 18.2653C10.5458 18.1669 10.5307 18.0686 10.497 17.976L8.87201 13.512Z" fill="#3C3737"/>
<path d="M19.48 10.5L14.569 4.078C14.3823 3.83376 14.1418 3.63584 13.8662 3.49962C13.5907 3.36339 13.2874 3.29253 12.98 3.29253C12.6726 3.29253 12.3693 3.36339 12.0937 3.49962C11.8181 3.63584 11.5777 3.83376 11.391 4.078L6.47998 10.5" stroke="#3C3737" stroke-width="2" stroke-linecap="round" stroke-linejoin="round"/>
</svg>
